<svg width="180" height="22" viewBox="0 0 180 22" fill="none" xmlns="http://www.w3.org/2000/svg">
<path d="M45.0001 21.4152H40.0501L30.7501 12.1152L21.4401 21.4152H16.5001L20.1701 17.7552L14.5801 12.1652L5.27007 21.4652H0.330078L12.1101 9.69516L3.16008 0.745178L3.31007 0.585175H7.95007L14.5801 7.21518L17.0501 9.69516L22.6401 15.2752L28.2701 9.64517L19.3301 0.69516L19.4801 0.535156H24.1201L30.7501 7.16516L33.2201 9.64517L45.0001 21.4152Z" fill="#3F62AE"/>
<path d="M57.5004 6.3154H54.8604V4.02539H62.6604V6.3154H60.0204V20.0754H57.5004V6.3154Z" fill="#3F62AE"/>
<path d="M71.6202 19.2554C70.9802 18.5554 70.6602 17.5654 70.6602 16.2654V4.02539H73.1802V16.4554C73.1802 17.0054 73.2902 17.4054 73.5102 17.6454C73.7302 17.8854 74.0502 18.0154 74.4602 18.0154C74.8702 18.0154 75.1902 17.8954 75.4102 17.6454C75.6302 17.4054 75.7402 17.0054 75.7402 16.4554V4.02539H78.1702V16.2654C78.1702 17.5654 77.8502 18.5654 77.2102 19.2554C76.5702 19.9554 75.6402 20.2954 74.4102 20.2954C73.2002 20.2954 72.2602 19.9454 71.6202 19.2554Z" fill="#3F62AE"/>
<path d="M86.8506 4.01514H90.5906C91.8906 4.01514 92.8406 4.31514 93.4306 4.92514C94.0306 5.52514 94.3206 6.45515 94.3206 7.71515V8.70514C94.3206 10.3751 93.7706 11.4251 92.6706 11.8651V11.9151C93.2806 12.0951 93.7106 12.4751 93.9706 13.0351C94.2206 13.6051 94.3506 14.3551 94.3506 15.3051V18.1252C94.3506 18.5852 94.3706 18.9551 94.4006 19.2351C94.4306 19.5151 94.5106 19.7951 94.6306 20.0751H92.0606C91.9706 19.8151 91.9106 19.5752 91.8806 19.3452C91.8506 19.1152 91.8306 18.7051 91.8306 18.1051V15.1751C91.8306 14.4451 91.7106 13.9251 91.4706 13.6351C91.2306 13.3451 90.8206 13.1951 90.2406 13.1951H89.3706V20.0751H86.8506V4.01514ZM90.2806 10.8951C90.7806 10.8951 91.1606 10.7651 91.4106 10.5051C91.6606 10.2451 91.7906 9.80513 91.7906 9.19513V7.95514C91.7906 7.37514 91.6906 6.95513 91.4806 6.69513C91.2706 6.43513 90.9506 6.30515 90.5106 6.30515H89.3606V10.8951H90.2806Z" fill="#3F62AE"/>
<path d="M104.91 4.01514H108.33L110.94 20.0652H108.42L107.96 16.8752V16.9251H105.09L104.63 20.0652H102.29L104.91 4.01514ZM107.66 14.7451L106.54 6.81516H106.49L105.39 14.7451H107.66Z" fill="#3F62AE"/>
<path d="M131.55 6.3154H128.91V4.02539H136.71V6.3154H134.07V20.0754H131.55V6.3154Z" fill="#3F62AE"/>
<path d="M144.801 4.01514H148.541C149.841 4.01514 150.791 4.31514 151.381 4.92514C151.981 5.52514 152.271 6.45515 152.271 7.71515V8.70514C152.271 10.3751 151.721 11.4251 150.621 11.8651V11.9151C151.231 12.0951 151.661 12.4751 151.921 13.0351C152.171 13.6051 152.301 14.3551 152.301 15.3051V18.1252C152.301 18.5852 152.321 18.9551 152.351 19.2351C152.381 19.5151 152.461 19.7951 152.581 20.0751H150.011C149.921 19.8151 149.861 19.5752 149.831 19.3452C149.801 19.1152 149.781 18.7051 149.781 18.1051V15.1751C149.781 14.4451 149.661 13.9251 149.421 13.6351C149.181 13.3451 148.771 13.1951 148.191 13.1951H147.321V20.0751H144.801V4.01514ZM148.241 10.8951C148.741 10.8951 149.121 10.7651 149.371 10.5051C149.621 10.2451 149.751 9.80513 149.751 9.19513V7.95514C149.751 7.37514 149.651 6.95513 149.441 6.69513C149.231 6.43513 148.911 6.30515 148.471 6.30515H147.321V10.8951H148.241Z" fill="#3F62AE"/>
<path d="M160.92 4.01514H163.44V20.0652H160.92V4.01514Z" fill="#3F62AE"/>
<path d="M172.2 4.01514H175.91C177.16 4.01514 178.1 4.35515 178.73 5.02515C179.36 5.69515 179.67 6.68514 179.67 7.98514V9.56516C179.67 10.8652 179.36 11.8551 178.73 12.5251C178.1 13.1951 177.16 13.5351 175.91 13.5351H174.72V20.0652H172.2V4.01514ZM175.91 11.2451C176.32 11.2451 176.63 11.1352 176.84 10.9052C177.05 10.6752 177.15 10.2851 177.15 9.73514V7.83514C177.15 7.28514 177.05 6.89513 176.84 6.66513C176.63 6.43513 176.32 6.32513 175.91 6.32513H174.72V11.2551H175.91V11.2451Z" fill="#3F62AE"/>
</svg>
