<svg xmlns="http://www.w3.org/2000/svg" viewBox="0 0 60 43.83" fill="currentColor">
  <g id="Layer_2" data-name="Layer 2">
    <g id="Layer_1-2" data-name="Layer 1">
      <path d="M60,27.94H53.36L40.86,15.49,28.37,27.94H21.72L26.65,23l-7.51-7.47L6.65,28H0L15.82,12.25,3.8.27,4,.06h6.22l8.91,8.88,3.32,3.31L30,19.72l7.57-7.54-12-12L25.73,0H32l8.91,8.87,3.32,3.31Z"/>
      <path d="M1.27,37.1H0V36H3.75v1.1H2.48v6.62H1.27Z"/>
      <path d="M8.06,43.33a2.06,2.06,0,0,1-.47-1.44V36H8.8v6a.88.88,0,0,0,.16.57.68.68,0,0,0,.92,0A.88.88,0,0,0,10,42V36H11.2v5.89a2.06,2.06,0,0,1-.46,1.44,1.74,1.74,0,0,1-1.34.5A1.73,1.73,0,0,1,8.06,43.33Z"/>
      <path d="M15.38,36h1.79a1.9,1.9,0,0,1,1.37.43A1.85,1.85,0,0,1,19,37.77v.48c0,.8-.26,1.31-.79,1.52v0a1,1,0,0,1,.62.54A2.72,2.72,0,0,1,19,41.42v1.36c0,.22,0,.4,0,.53a1.59,1.59,0,0,0,.12.41H17.88a2.7,2.7,0,0,1-.09-.36c0-.1,0-.3,0-.59V41.36a1.17,1.17,0,0,0-.17-.74.72.72,0,0,0-.59-.21h-.42v3.31H15.38V36ZM17,39.31a.7.7,0,0,0,.54-.19.85.85,0,0,0,.19-.63V37.9a1,1,0,0,0-.15-.61.58.58,0,0,0-.47-.18h-.55v2.2Z"/>
      <path d="M24.06,36H25.7L27,43.72H25.75l-.23-1.54v0H24.15l-.22,1.51H22.8Zm1.32,5.16-.54-3.81h0l-.53,3.81Z"/>
      <path d="M36.87,37.1H35.6V36h3.75v1.1H38.08v6.62H36.87Z"/>
      <path d="M43.24,36H45a1.9,1.9,0,0,1,1.37.43,1.85,1.85,0,0,1,.43,1.34v.48c0,.8-.26,1.31-.79,1.52v0a1,1,0,0,1,.62.54,2.7,2.7,0,0,1,.19,1.09v1.36a4,4,0,0,0,0,.53,1.25,1.25,0,0,0,.11.41H45.74a1.68,1.68,0,0,1-.08-.36,3.71,3.71,0,0,1,0-.59V41.36a1.25,1.25,0,0,0-.16-.74.74.74,0,0,0-.59-.21h-.43v3.31H43.24V36Zm1.65,3.31a.7.7,0,0,0,.54-.19.85.85,0,0,0,.19-.63V37.9a1,1,0,0,0-.15-.61.58.58,0,0,0-.47-.18h-.55v2.2Z"/>
      <path d="M51,36H52.2v7.72H51Z"/>
      <path d="M56.41,36h1.78a1.74,1.74,0,0,1,1.36.49A2,2,0,0,1,60,37.91v.76a2,2,0,0,1-.45,1.42,1.77,1.77,0,0,1-1.36.48h-.57v3.14H56.41Zm1.79,3.47a.57.57,0,0,0,.44-.16.85.85,0,0,0,.15-.57v-.91a.82.82,0,0,0-.15-.56.56.56,0,0,0-.44-.17h-.58v2.37Z"/>
    </g>
  </g>
</svg>
