<svg width="68" height="68" viewBox="0 0 68 68" fill="none" xmlns="http://www.w3.org/2000/svg">
<path d="M64 40.0209H57.3586L44.8604 27.5728L32.3659 40.0209H25.7209L30.6486 35.1166L23.1396 27.6413L10.645 40.0857H4L19.8207 24.3321L7.79969 12.3594L8.00939 12.1505H14.2314L23.1396 21.0229L26.462 24.3321L33.9675 31.8074L41.5416 24.2673L29.517 12.2945L29.7267 12.0857H35.9523L44.8604 20.9581L48.1829 24.2673L64 40.0209Z" fill="#F3F3EE"/>
<path d="M5.26858 49.1881H4V48.0857H7.74809V49.1881H6.47951V55.8024H5.26858V49.1881Z" fill="#F3F3EE"/>
<path d="M12.056 55.4123C11.7473 55.0765 11.5913 54.5982 11.5913 53.9741V48.0891H12.8022V54.0623C12.8022 54.3269 12.8565 54.5168 12.9616 54.6355C13.0668 54.7543 13.2194 54.8119 13.4195 54.8119C13.6197 54.8119 13.7689 54.7543 13.8775 54.6355C13.9826 54.5168 14.0369 54.3269 14.0369 54.0623V48.0891H15.2037V53.9741C15.2037 54.5982 15.0477 55.0765 14.7424 55.4123C14.4337 55.7481 13.986 55.9143 13.3992 55.9143C12.8124 55.9143 12.3647 55.7447 12.056 55.4123Z" fill="#F3F3EE"/>
<path d="M19.3755 48.0857H21.1732C21.7973 48.0857 22.2519 48.2315 22.5402 48.5199C22.8251 48.8116 22.971 49.2559 22.971 49.8597V50.3346C22.971 51.135 22.7064 51.6438 22.1772 51.8541V51.8745C22.4723 51.9627 22.6792 52.1425 22.8014 52.4138C22.9235 52.6852 22.9845 53.0481 22.9845 53.506V54.8628C22.9845 55.0833 22.9913 55.263 23.0049 55.3987C23.0184 55.5344 23.0558 55.6701 23.1168 55.8024H21.8821C21.838 55.6769 21.8075 55.5615 21.7939 55.4496C21.7804 55.341 21.7736 55.1409 21.7736 54.856V53.445C21.7736 53.0922 21.7159 52.8446 21.604 52.7055C21.4887 52.5664 21.2919 52.4952 21.0138 52.4952H20.5932V55.8024H19.3823V48.0857H19.3755ZM21.0274 51.3928C21.2682 51.3928 21.4514 51.3318 21.5735 51.2063C21.6956 51.0808 21.7566 50.8705 21.7566 50.5788V49.9852C21.7566 49.707 21.7058 49.5035 21.6074 49.378C21.509 49.2525 21.353 49.1915 21.1393 49.1915H20.5898V51.3962H21.0274V51.3928Z" fill="#F3F3EE"/>
<path d="M28.0592 48.0857H29.7009L30.9593 55.8024H29.745L29.5245 54.2692V54.2896H28.1474L27.9269 55.799H26.8042L28.0592 48.0857ZM29.3821 53.2448L28.8428 49.4323H28.819L28.2899 53.2448H29.3821Z" fill="#F3F3EE"/>
<path d="M40.8667 49.1881H39.5981V48.0857H43.3462V49.1881H42.0777V55.8024H40.8667V49.1881Z" fill="#F3F3EE"/>
<path d="M47.2368 48.0857H49.0345C49.6587 48.0857 50.1132 48.2315 50.4015 48.5199C50.6864 48.8116 50.8323 49.2559 50.8323 49.8597V50.3346C50.8323 51.135 50.5677 51.6438 50.0386 51.8541V51.8745C50.3337 51.9627 50.5406 52.1425 50.6627 52.4138C50.7848 52.6852 50.8458 53.0481 50.8458 53.506V54.8628C50.8458 55.0833 50.8526 55.263 50.8662 55.3987C50.8798 55.5344 50.9171 55.6701 50.9781 55.8024H49.7435C49.6994 55.6769 49.6688 55.5615 49.6553 55.4496C49.6417 55.341 49.6349 55.1409 49.6349 54.856V53.445C49.6349 53.0922 49.5773 52.8446 49.4653 52.7055C49.35 52.5664 49.1533 52.4952 48.8751 52.4952H48.4545V55.8024H47.2436V48.0857H47.2368ZM48.8887 51.3928C49.1295 51.3928 49.3127 51.3318 49.4348 51.2063C49.5569 51.0808 49.618 50.8705 49.618 50.5788V49.9852C49.618 49.707 49.5671 49.5035 49.4687 49.378C49.3704 49.2525 49.2143 49.1915 49.0006 49.1915H48.4511V51.3962H48.8887V51.3928Z" fill="#F3F3EE"/>
<path d="M54.9844 48.0857H56.1953V55.8024H54.9844V48.0857Z" fill="#F3F3EE"/>
<path d="M60.4077 48.0857H62.1919C62.7956 48.0857 63.2468 48.2485 63.5487 48.5707C63.8505 48.893 63.9998 49.3678 63.9998 49.992V50.7518C63.9998 51.3759 63.8505 51.8507 63.5487 52.173C63.2468 52.4952 62.7956 52.658 62.1919 52.658H61.6186V55.799H60.4077V48.0857ZM62.1953 51.559C62.392 51.559 62.5413 51.5048 62.643 51.3928C62.7414 51.2809 62.7922 51.0943 62.7922 50.8298V49.9139C62.7922 49.6494 62.7414 49.4628 62.643 49.3509C62.5446 49.2423 62.3954 49.1847 62.1953 49.1847H61.622V51.5556H62.1953V51.559Z" fill="#F3F3EE"/>
</svg>
