<svg width="68" height="68" viewBox="0 0 68 68" fill="none" xmlns="http://www.w3.org/2000/svg">
<path d="M64 40.0209H57.3586L44.8604 27.5728L32.3659 40.0209H25.7209L30.6486 35.1166L23.1396 27.6413L10.645 40.0857H4L19.8207 24.3321L7.79969 12.3594L8.00939 12.1505H14.2314L23.1396 21.0229L26.462 24.3321L33.9675 31.8074L41.5416 24.2673L29.517 12.2945L29.7267 12.0857H35.9523L44.8604 20.9581L48.1829 24.2673L64 40.0209Z" fill="#0B101A"/>
<path d="M5.26858 49.1881H4V48.0857H7.74809V49.1881H6.47951V55.8024H5.26858V49.1881Z" fill="#0B101A"/>
<path d="M12.0545 55.4123C11.7459 55.0765 11.5898 54.5982 11.5898 53.9741V48.0891H12.8008V54.0623C12.8008 54.3269 12.855 54.5168 12.9602 54.6355C13.0653 54.7543 13.218 54.8119 13.4181 54.8119C13.6182 54.8119 13.7675 54.7543 13.876 54.6355C13.9812 54.5168 14.0354 54.3269 14.0354 54.0623V48.0891H15.2022V53.9741C15.2022 54.5982 15.0462 55.0765 14.7409 55.4123C14.4323 55.7481 13.9845 55.9143 13.3977 55.9143C12.8109 55.9143 12.3632 55.7447 12.0545 55.4123Z" fill="#0B101A"/>
<path d="M19.375 48.0857H21.1727C21.7969 48.0857 22.2514 48.2315 22.5397 48.5199C22.8246 48.8116 22.9705 49.2559 22.9705 49.8597V50.3346C22.9705 51.135 22.7059 51.6438 22.1767 51.8541V51.8745C22.4718 51.9627 22.6788 52.1425 22.8009 52.4138C22.923 52.6852 22.984 53.0481 22.984 53.506V54.8628C22.984 55.0833 22.9908 55.263 23.0044 55.3987C23.0179 55.5344 23.0553 55.6701 23.1163 55.8024H21.8816C21.8376 55.6769 21.807 55.5615 21.7935 55.4496C21.7799 55.341 21.7731 55.1409 21.7731 54.856V53.445C21.7731 53.0922 21.7154 52.8446 21.6035 52.7055C21.4882 52.5664 21.2915 52.4952 21.0133 52.4952H20.5927V55.8024H19.3818V48.0857H19.375ZM21.0269 51.3928C21.2677 51.3928 21.4509 51.3318 21.573 51.2063C21.6951 51.0808 21.7561 50.8705 21.7561 50.5788V49.9852C21.7561 49.707 21.7053 49.5035 21.6069 49.378C21.5085 49.2525 21.3525 49.1915 21.1388 49.1915H20.5893V51.3962H21.0269V51.3928Z" fill="#0B101A"/>
<path d="M28.0597 48.0857H29.7014L30.9598 55.8024H29.7455L29.525 54.2692V54.2896H28.1479L27.9274 55.799H26.8047L28.0597 48.0857ZM29.3826 53.2448L28.8432 49.4323H28.8195L28.2904 53.2448H29.3826Z" fill="#0B101A"/>
<path d="M40.8662 49.1881H39.5977V48.0857H43.3457V49.1881H42.0772V55.8024H40.8662V49.1881Z" fill="#0B101A"/>
<path d="M47.2383 48.0857H49.036C49.6601 48.0857 50.1147 48.2315 50.403 48.5199C50.6879 48.8116 50.8337 49.2559 50.8337 49.8597V50.3346C50.8337 51.135 50.5692 51.6438 50.04 51.8541V51.8745C50.3351 51.9627 50.542 52.1425 50.6642 52.4138C50.7863 52.6852 50.8473 53.0481 50.8473 53.506V54.8628C50.8473 55.0833 50.8541 55.263 50.8677 55.3987C50.8812 55.5344 50.9185 55.6701 50.9796 55.8024H49.7449C49.7008 55.6769 49.6703 55.5615 49.6567 55.4496C49.6432 55.341 49.6364 55.1409 49.6364 54.856V53.445C49.6364 53.0922 49.5787 52.8446 49.4668 52.7055C49.3515 52.5664 49.1547 52.4952 48.8766 52.4952H48.456V55.8024H47.2451V48.0857H47.2383ZM48.8902 51.3928C49.131 51.3928 49.3142 51.3318 49.4363 51.2063C49.5584 51.0808 49.6194 50.8705 49.6194 50.5788V49.9852C49.6194 49.707 49.5685 49.5035 49.4702 49.378C49.3718 49.2525 49.2158 49.1915 49.0021 49.1915H48.4526V51.3962H48.8902V51.3928Z" fill="#0B101A"/>
<path d="M54.9844 48.0857H56.1953V55.8024H54.9844V48.0857Z" fill="#0B101A"/>
<path d="M60.4062 48.0857H62.1904C62.7942 48.0857 63.2453 48.2485 63.5472 48.5707C63.8491 48.893 63.9983 49.3678 63.9983 49.992V50.7518C63.9983 51.3759 63.8491 51.8507 63.5472 52.173C63.2453 52.4952 62.7942 52.658 62.1904 52.658H61.6172V55.799H60.4062V48.0857ZM62.1938 51.559C62.3905 51.559 62.5398 51.5048 62.6415 51.3928C62.7399 51.2809 62.7908 51.0943 62.7908 50.8298V49.9139C62.7908 49.6494 62.7399 49.4628 62.6415 49.3509C62.5432 49.2423 62.3939 49.1847 62.1938 49.1847H61.6206V51.5556H62.1938V51.559Z" fill="#0B101A"/>
</svg>
