<svg width="55" height="46" viewBox="-5 0 65 50" fill="currentColor" xmlns="http://www.w3.org/2000/svg">
<g clip-path="url(#clip0_4371_819)">
<g clip-path="url(#clip1_4371_819)">
<mask id="mask0_4371_819" style="mask-type:luminance" maskUnits="userSpaceOnUse" x="0" y="2" width="52" height="34">
<path d="M52 2.10815H0V35.1352H52V2.10815Z" fill="white"/>
</mask>
<g mask="url(#mask0_4371_819)">
<path d="M18.5132 19.9151C18.5116 22.2598 16.5838 24.1592 14.2076 24.1576C11.8313 24.1559 9.90628 22.2538 9.9079 19.909C9.90952 17.5654 11.8354 15.6664 14.2105 15.6664C16.5868 15.6664 18.5133 17.5672 18.5133 19.912C18.5132 19.913 18.5132 19.9141 18.5132 19.9151ZM38.4676 15.6665C36.091 15.6663 34.1643 17.5671 34.1641 19.9121C34.1638 22.2571 36.0902 24.1583 38.4668 24.1585C40.8426 24.1588 42.7689 22.2592 42.7703 19.9151C42.7719 17.5703 40.8468 15.6681 38.4707 15.6665C38.4696 15.6665 38.4686 15.6665 38.4676 15.6665ZM50.6011 19.9151C50.6011 26.5243 45.1662 31.8824 38.4676 31.8824C35.4114 31.8867 32.4669 30.7476 30.2277 28.6951L26.3415 32.8667L22.4532 28.6906C20.2137 30.7445 17.2682 31.8844 14.2105 31.8803C7.51204 31.8803 2.08181 26.5221 2.08181 19.9128C2.07754 16.546 3.51435 13.334 6.0379 11.0679L2.06945 6.80717H10.8901C15.4399 3.73565 20.8265 2.09723 26.3393 2.10821C32.0921 2.10821 37.4102 3.84001 41.814 6.80725H50.6121L46.6437 11.068C49.1683 13.3343 50.6056 16.5472 50.6011 19.9151ZM22.4186 19.9151C22.4186 15.4419 18.7439 11.8159 14.2105 11.8159C9.67727 11.8159 6.00251 15.4398 6.00251 19.9151C6.00251 24.3903 9.67727 28.0142 14.2105 28.0142C18.7439 28.0142 22.4186 24.3857 22.4186 19.9151ZM35.4497 7.82394C29.6198 5.4274 23.0615 5.4274 17.2316 7.82394C22.4125 9.77745 26.3412 14.3499 26.3412 19.6794C26.3412 14.3504 30.2693 9.77745 35.4497 7.82183L35.4497 7.82394ZM46.6756 19.9151C46.6756 15.4419 43.0011 11.8159 38.4676 11.8159C33.9343 11.8159 30.2596 15.4398 30.2596 19.9151C30.2596 24.3903 33.9343 28.0142 38.4676 28.0142C43.0009 28.0142 46.6756 24.3857 46.6756 19.9151ZM-29.5614 44.1443V41.6137H-33.494V56.6729H-29.5614V47.639C-29.5614 46.004 -28.4956 45.2014 -26.8403 45.2014H-24.6892V41.6103H-26.5291C-27.9662 41.6103 -29.2148 42.3511 -29.5614 44.1409V44.1443ZM-21.0042 35.654C-22.3492 35.654 -23.3808 36.703 -23.3808 38.0301C-23.3808 39.3253 -22.3168 40.3752 -21.0042 40.3752C-19.6916 40.3752 -18.6275 39.3253 -18.6275 38.0301C-18.6275 36.703 -19.6597 35.654 -21.0042 35.654ZM-22.9652 56.6678H-19.0432V41.6087H-22.9652V56.6678ZM-0.352383 49.1383C-0.352383 53.4364 -3.88345 56.9202 -8.23898 56.9202C-9.91085 56.928 -11.5384 56.3909 -12.8691 55.3924V61.088H-16.791V41.6121H-12.8691V42.8823C-11.5387 41.8847 -9.91169 41.3481 -8.24067 41.3563C-3.88503 41.3563 -0.354088 44.8403 -0.354088 49.1383C-0.354088 49.1385 -0.354088 49.1389 -0.354088 49.1391L-0.352383 49.1383ZM-4.3008 49.1383C-4.3008 46.8033 -6.21917 44.9103 -8.58555 44.9103C-10.9521 44.9103 -12.8705 46.8033 -12.8705 49.1383C-12.8705 51.4733 -10.9521 53.3662 -8.58555 53.3662C-8.58576 53.3662 -8.58541 53.3662 -8.58555 53.3662C-6.21984 53.3657 -4.30169 51.4734 -4.30123 49.1391L-4.3008 49.1383ZM67.8437 47.8174L65.5549 47.1978C64.0488 46.8109 63.4621 46.3565 63.4621 45.57C63.4621 44.8044 64.2866 44.2698 65.4658 44.2698C66.5899 44.2698 67.4694 44.9962 67.4694 45.9237V46.0078H71.0855V45.9237C71.0855 43.1895 68.8259 41.3554 65.4649 41.3554C62.1347 41.3554 59.7175 43.1898 59.7175 45.717C59.7175 47.684 61.0391 49.1663 63.3411 49.7809L65.5331 50.3698C67.1983 50.8246 67.8177 51.3296 67.8177 52.2337C67.8177 53.1881 66.9225 53.8293 65.5907 53.8293C64.2018 53.8293 63.2686 52.9627 63.2686 51.6735V51.5894H59.4319V51.6735C59.4319 54.7627 61.9522 56.9202 65.5608 56.9202C69.0382 56.9202 71.5626 54.8128 71.5626 51.9094C71.5633 50.4906 70.9175 48.6272 67.8433 47.8182L67.8437 47.8174ZM13.5668 41.6095H17.4888V56.6687H13.5668V55.395C12.236 56.3933 10.6085 56.9305 8.93676 56.9227C4.58045 56.9227 1.05015 53.4381 1.05015 49.1407C1.05015 44.8434 4.58164 41.3587 8.93676 41.3587C10.6079 41.3497 12.2353 41.8854 13.5665 42.8824L13.5668 41.6095ZM13.5668 49.1391C13.5668 46.8041 11.6485 44.9111 9.28207 44.9111C6.91552 44.9111 4.99717 46.8041 4.99717 49.1391C4.99717 51.4734 6.91458 53.366 9.28038 53.3671C11.6467 53.3679 13.5656 51.4754 13.5664 49.1404C13.5664 49.1399 13.5668 49.1398 13.5668 49.1391ZM31.657 36.2504H35.579V56.6674H31.657V55.3937C30.3263 56.3921 28.6987 56.9292 27.027 56.9214C22.6707 56.9214 19.1404 53.4368 19.1404 49.1395C19.1404 44.8416 22.6713 41.3575 27.027 41.3575C28.6982 41.3489 30.3258 41.8848 31.6567 42.8823L31.657 36.2504ZM31.657 49.1386C31.657 46.8036 29.7387 44.9107 27.3722 44.9107C25.0058 44.9107 23.0874 46.8036 23.0874 49.1386C23.0874 51.4737 25.0058 53.3666 27.3722 53.3666C29.7383 53.3663 31.6568 51.4733 31.657 49.1386ZM53.7987 56.6682H57.7207V41.609H53.7987V56.6682ZM55.7597 35.6544C54.4152 35.6544 53.3835 36.7034 53.3835 38.0306C53.3835 39.3257 54.4476 40.3757 55.7602 40.3757C57.0727 40.3757 58.1368 39.3257 58.1368 38.0306C58.1347 36.703 57.1048 35.6544 55.7597 35.6544ZM97.1368 41.6355C95.699 41.6355 94.4482 42.376 94.1039 44.1657V41.6107H90.1709V56.6699H94.1039V47.668C94.1039 46.0326 95.1671 45.2282 96.8248 45.2282H99.1451V41.6372L97.1368 41.6355ZM88.523 49.1395C88.523 53.4376 84.992 56.9214 80.6366 56.9214C76.2813 56.9214 72.7502 53.4368 72.7502 49.1395C72.7502 44.8422 76.2813 41.3575 80.6366 41.3575C84.992 41.3577 88.5223 44.8419 88.523 49.1395ZM84.9203 49.1395C84.9203 46.8044 83.0019 44.9115 80.6359 44.9115C78.2692 44.9115 76.3508 46.8044 76.3508 49.1395C76.3508 51.4745 78.2692 53.3674 80.6359 53.3674C83.0019 53.3672 84.9203 51.4746 84.9203 49.1395ZM-31.5701 36.2508H-46.6216V39.7048H-41.0506V56.6678H-37.1415V39.7048H-31.5701V36.2508ZM44.5462 52.5441L41.0561 41.6103H36.935L42.17 56.6694H46.8913L52.1571 41.6103H48.036L44.5462 52.5441Z"/>
</g>
<path d="M2.51025 37.7866V36.9238H7.65204V37.7866H5.57909V43.5675H4.57994V37.7866H2.51025ZM8.19298 43.5675V38.5847H9.13046V39.3762H9.18239C9.27318 39.108 9.43325 38.8972 9.66247 38.7436C9.89387 38.5879 10.1556 38.51 10.4475 38.51C10.5081 38.51 10.5794 38.5122 10.6616 38.5165C10.746 38.5209 10.812 38.5263 10.8595 38.5327V39.4605C10.8206 39.4498 10.7514 39.4378 10.6519 39.4249C10.5524 39.4097 10.4529 39.4021 10.3534 39.4021C10.1242 39.4021 9.91987 39.4508 9.74033 39.5481C9.56297 39.6433 9.42243 39.7763 9.31864 39.9471C9.21478 40.1159 9.16292 40.3083 9.16292 40.5245V43.5675H8.19298ZM11.6989 43.5675V38.5847H12.6688V43.5675H11.6989ZM12.1888 37.8158C12.02 37.8158 11.8751 37.7596 11.7541 37.6471C11.6351 37.5325 11.5757 37.3963 11.5757 37.2384C11.5757 37.0784 11.6351 36.9421 11.7541 36.8297C11.8751 36.7151 12.02 36.6577 12.1888 36.6577C12.3575 36.6577 12.5013 36.7151 12.6202 36.8297C12.7413 36.9421 12.8019 37.0784 12.8019 37.2384C12.8019 37.3963 12.7413 37.5325 12.6202 37.6471C12.5013 37.7596 12.3575 37.8158 12.1888 37.8158ZM13.9738 45.436V38.5847H14.921V39.3924H15.0021C15.0584 39.2886 15.1395 39.1686 15.2454 39.0324C15.3514 38.8961 15.4985 38.7771 15.6866 38.6755C15.8748 38.5717 16.1235 38.5198 16.4327 38.5198C16.835 38.5198 17.194 38.6214 17.5098 38.8247C17.8255 39.028 18.0731 39.321 18.2527 39.7039C18.4343 40.0866 18.5251 40.5473 18.5251 41.0858C18.5251 41.6243 18.4354 42.086 18.2559 42.471C18.0764 42.8538 17.8298 43.149 17.5162 43.3566C17.2027 43.5621 16.8447 43.6648 16.4425 43.6648C16.1397 43.6648 15.8921 43.614 15.6996 43.5123C15.5093 43.4107 15.3601 43.2917 15.2519 43.1555C15.1438 43.0192 15.0605 42.8981 15.0021 42.7922H14.9437V45.436H13.9738ZM14.9242 41.076C14.9242 41.4264 14.9751 41.7335 15.0767 41.9973C15.1784 42.2612 15.3255 42.4677 15.518 42.617C15.7104 42.7641 15.9461 42.8376 16.2252 42.8376C16.515 42.8376 16.7572 42.7608 16.9518 42.6072C17.1464 42.4515 17.2935 42.2407 17.393 41.9746C17.4946 41.7087 17.5455 41.4091 17.5455 41.076C17.5455 40.7473 17.4957 40.4521 17.3962 40.1904C17.2989 39.9288 17.1518 39.7222 16.9551 39.5708C16.7604 39.4195 16.5171 39.3437 16.2252 39.3437C15.944 39.3437 15.7061 39.4162 15.5114 39.5611C15.319 39.706 15.173 39.9082 15.0735 40.1677C14.974 40.4272 14.9242 40.73 14.9242 41.076ZM21.0619 43.6778C20.7462 43.6778 20.4607 43.6194 20.2055 43.5026C19.9503 43.3836 19.7481 43.2117 19.5989 42.9868C19.4518 42.7619 19.3783 42.4861 19.3783 42.1595C19.3783 41.8784 19.4324 41.647 19.5405 41.4653C19.6487 41.2837 19.7946 41.1398 19.9784 41.0339C20.1623 40.9279 20.3677 40.8479 20.5948 40.7938C20.8219 40.7398 21.0533 40.6987 21.289 40.6706C21.5875 40.6359 21.8297 40.6078 22.0157 40.5862C22.2016 40.5624 22.3368 40.5245 22.4212 40.4727C22.5056 40.4208 22.5477 40.3364 22.5477 40.2196V40.1969C22.5477 39.9136 22.4677 39.6941 22.3076 39.5384C22.1498 39.3827 21.914 39.3048 21.6005 39.3048C21.2739 39.3048 21.0165 39.3772 20.8284 39.5222C20.6424 39.6649 20.5137 39.8239 20.4424 39.9991L19.5307 39.7914C19.6389 39.4886 19.7968 39.2443 20.0044 39.0583C20.2142 38.8701 20.4553 38.7338 20.7278 38.6495C21.0003 38.563 21.2869 38.5198 21.5875 38.5198C21.7864 38.5198 21.9973 38.5436 22.2201 38.5911C22.445 38.6366 22.6547 38.7209 22.8494 38.8442C23.0462 38.9674 23.2073 39.1437 23.3328 39.373C23.4582 39.6 23.5209 39.8952 23.5209 40.2586V43.5675H22.5737V42.8862H22.5347C22.472 43.0116 22.378 43.1349 22.2525 43.256C22.1271 43.3772 21.966 43.4777 21.7691 43.5578C21.5723 43.6377 21.3366 43.6778 21.0619 43.6778ZM21.2728 42.8992C21.541 42.8992 21.7703 42.8462 21.9605 42.7402C22.153 42.6343 22.299 42.4958 22.3985 42.325C22.5002 42.152 22.551 41.9671 22.551 41.7703V41.128C22.5163 41.1626 22.4493 41.195 22.3498 41.2253C22.2525 41.2534 22.1411 41.2783 22.0157 41.2999C21.8903 41.3194 21.7681 41.3377 21.6491 41.3551C21.5301 41.3702 21.4307 41.3832 21.3507 41.394C21.1625 41.4178 20.9906 41.4578 20.8349 41.514C20.6813 41.5702 20.558 41.6513 20.4651 41.7573C20.3742 41.8611 20.3288 41.9995 20.3288 42.1725C20.3288 42.4126 20.4175 42.5943 20.5948 42.7175C20.7721 42.8386 20.9981 42.8992 21.2728 42.8992ZM26.6781 43.6648C26.2759 43.6648 25.9169 43.5621 25.6011 43.3566C25.2876 43.149 25.041 42.8538 24.8615 42.471C24.6842 42.086 24.5955 41.6243 24.5955 41.0858C24.5955 40.5473 24.6852 40.0866 24.8647 39.7039C25.0464 39.321 25.2951 39.028 25.6109 38.8247C25.9266 38.6214 26.2846 38.5198 26.6846 38.5198C26.9939 38.5198 27.2426 38.5717 27.4307 38.6755C27.6211 38.7771 27.7681 38.8961 27.872 39.0324C27.9779 39.1686 28.0601 39.2886 28.1185 39.3924H28.1769V36.9238H29.1468V43.5675H28.1996V42.7922H28.1185C28.0601 42.8981 27.9757 43.0192 27.8654 43.1555C27.7573 43.2917 27.6081 43.4107 27.4178 43.5123C27.2274 43.614 26.9809 43.6648 26.6781 43.6648ZM26.8923 42.8376C27.1712 42.8376 27.407 42.7641 27.5995 42.617C27.7941 42.4677 27.9411 42.2612 28.0406 41.9973C28.1423 41.7335 28.1931 41.4264 28.1931 41.076C28.1931 40.73 28.1433 40.4272 28.0438 40.1677C27.9444 39.9082 27.7984 39.706 27.6059 39.5611C27.4134 39.4162 27.1756 39.3437 26.8923 39.3437C26.6003 39.3437 26.357 39.4195 26.1624 39.5708C25.9677 39.7222 25.8206 39.9288 25.7211 40.1904C25.6238 40.4521 25.5752 40.7473 25.5752 41.076C25.5752 41.4091 25.6249 41.7087 25.7244 41.9746C25.8239 42.2407 25.9709 42.4515 26.1656 42.6072C26.3624 42.7608 26.6046 42.8376 26.8923 42.8376ZM34.7939 38.5847L32.9869 43.5675H31.9488L30.1387 38.5847H31.18L32.4419 42.4191H32.4938L33.7525 38.5847H34.7939ZM35.7054 43.5675V38.5847H36.6754V43.5675H35.7054ZM36.1953 37.8158C36.0265 37.8158 35.8816 37.7596 35.7606 37.6471C35.6416 37.5325 35.5822 37.3963 35.5822 37.2384C35.5822 37.0784 35.6416 36.9421 35.7606 36.8297C35.8816 36.7151 36.0265 36.6577 36.1953 36.6577C36.3639 36.6577 36.5078 36.7151 36.6267 36.8297C36.7478 36.9421 36.8084 37.0784 36.8084 37.2384C36.8084 37.3963 36.7478 37.5325 36.6267 37.6471C36.5078 37.7596 36.3639 37.8158 36.1953 37.8158ZM41.7141 39.8012L40.835 39.9569C40.7982 39.8444 40.7399 39.7374 40.6598 39.6357C40.582 39.5341 40.476 39.4508 40.3419 39.386C40.2078 39.321 40.0402 39.2886 39.8391 39.2886C39.5644 39.2886 39.3352 39.3503 39.1514 39.4735C38.9676 39.5947 38.8757 39.7514 38.8757 39.9439C38.8757 40.1104 38.9373 40.2445 39.0605 40.3461C39.1838 40.4478 39.3828 40.5311 39.6574 40.5959L40.4489 40.7776C40.9074 40.8836 41.2492 41.0469 41.4741 41.2674C41.699 41.488 41.8115 41.7746 41.8115 42.1271C41.8115 42.4256 41.725 42.6916 41.5519 42.9251C41.3811 43.1565 41.1421 43.3382 40.835 43.4701C40.5301 43.602 40.1765 43.668 39.7742 43.668C39.2163 43.668 38.761 43.549 38.4085 43.3112C38.056 43.0711 37.8397 42.7305 37.7597 42.2893L38.6972 42.1466C38.7556 42.391 38.8757 42.5759 39.0573 42.7013C39.2389 42.8246 39.4758 42.8862 39.7677 42.8862C40.0856 42.8862 40.3397 42.8203 40.5301 42.6883C40.7204 42.5542 40.8155 42.391 40.8155 42.1985C40.8155 42.0428 40.7571 41.912 40.6404 41.806C40.5257 41.7 40.3495 41.62 40.1116 41.5659L39.2681 41.381C38.8032 41.275 38.4593 41.1063 38.2365 40.8749C38.016 40.6435 37.9056 40.3505 37.9056 39.9958C37.9056 39.7017 37.9879 39.4444 38.1522 39.2237C38.3166 39.0031 38.5436 38.8312 38.8334 38.7079C39.1232 38.5825 39.4552 38.5198 39.8294 38.5198C40.3678 38.5198 40.7918 38.6366 41.101 38.8701C41.4103 39.1015 41.6146 39.4119 41.7141 39.8012ZM44.9768 43.668C44.5096 43.668 44.102 43.561 43.7538 43.3469C43.4056 43.1328 43.1353 42.8332 42.9428 42.4483C42.7504 42.0633 42.6541 41.6135 42.6541 41.0988C42.6541 40.5819 42.7504 40.1299 42.9428 39.7428C43.1353 39.3557 43.4056 39.0551 43.7538 38.8409C44.102 38.6268 44.5096 38.5198 44.9768 38.5198C45.444 38.5198 45.8516 38.6268 46.1998 38.8409C46.548 39.0551 46.8183 39.3557 47.0108 39.7428C47.2032 40.1299 47.2995 40.5819 47.2995 41.0988C47.2995 41.6135 47.2032 42.0633 47.0108 42.4483C46.8183 42.8332 46.548 43.1328 46.1998 43.3469C45.8516 43.561 45.444 43.668 44.9768 43.668ZM44.98 42.8538C45.2828 42.8538 45.5337 42.7738 45.7326 42.6138C45.9316 42.4537 46.0787 42.2407 46.1739 41.9746C46.2712 41.7087 46.3198 41.4156 46.3198 41.0955C46.3198 40.7776 46.2712 40.4856 46.1739 40.2196C46.0787 39.9515 45.9316 39.7363 45.7326 39.5741C45.5337 39.4119 45.2828 39.3308 44.98 39.3308C44.6751 39.3308 44.4221 39.4119 44.221 39.5741C44.022 39.7363 43.8738 39.9515 43.7765 40.2196C43.6814 40.4856 43.6338 40.7776 43.6338 41.0955C43.6338 41.4156 43.6814 41.7087 43.7765 41.9746C43.8738 42.2407 44.022 42.4537 44.221 42.6138C44.4221 42.7738 44.6751 42.8538 44.98 42.8538ZM48.3822 43.5675V38.5847H49.3197V39.3762H49.3716C49.4624 39.108 49.6225 38.8972 49.8517 38.7436C50.0831 38.5879 50.3448 38.51 50.6368 38.51C50.6974 38.51 50.7687 38.5122 50.8509 38.5165C50.9352 38.5209 51.0012 38.5263 51.0488 38.5327V39.4605C51.0099 39.4498 50.9406 39.4378 50.8411 39.4249C50.7417 39.4097 50.6422 39.4021 50.5427 39.4021C50.3135 39.4021 50.1091 39.4508 49.9296 39.5481C49.7522 39.6433 49.6117 39.7763 49.5079 39.9471C49.404 40.1159 49.3522 40.3083 49.3522 40.5245V43.5675H48.3822Z"/>
</g>
</g>
<defs>
<clipPath id="clip0_4371_819">
<rect width="55" height="45.6757" fill="currentColor"/>
</clipPath>
<clipPath id="clip1_4371_819">
<rect width="130" height="45.6757" fill="currentColor"/>
</clipPath>
</defs>
</svg>