<svg width="55" height="46" viewBox="0 0 55 46" fill="currentColor" xmlns="http://www.w3.org/2000/svg">
<g clip-path="url(#clip0_2723_13702)">
<path d="M47.62 19.92C47.6458 18.2909 47.1863 16.691 46.3 15.3239C45.4137 13.9568 44.1407 12.8843 42.643 12.2429C41.1452 11.6015 39.4905 11.4203 37.8895 11.7222C36.2884 12.0242 34.8134 12.7957 33.6522 13.9385C32.491 15.0814 31.696 16.5439 31.3686 18.1399C31.0411 19.7359 31.1959 21.3933 31.8133 22.9011C32.4307 24.4088 33.4827 25.6988 34.8355 26.6068C36.1883 27.5148 37.7807 27.9998 39.41 28C41.5698 28.016 43.6476 27.174 45.187 25.6589C46.7264 24.1439 47.6015 22.0798 47.62 19.92ZM36.39 7.82C30.5528 5.42504 24.0072 5.42504 18.17 7.82C23.35 9.82 27.28 14.35 27.28 19.68C27.28 14.35 31.21 9.78 36.39 7.82ZM23.39 19.92C23.4158 18.2922 22.957 16.6935 22.072 15.3271C21.187 13.9606 19.9158 12.8881 18.4198 12.2459C16.9238 11.6037 15.2707 11.4207 13.6705 11.7202C12.0703 12.0197 10.5953 12.7882 9.43287 13.9281C8.27047 15.0679 7.47319 16.5276 7.14235 18.1216C6.8115 19.7156 6.96204 21.372 7.57481 22.8803C8.18759 24.3886 9.23495 25.6806 10.5838 26.5922C11.9326 27.5038 13.522 27.9938 15.15 28C17.3098 28.016 19.3876 27.174 20.927 25.6589C22.4664 24.1439 23.3415 22.0798 23.36 19.92H23.39ZM51.57 19.92C51.5345 22.267 50.8211 24.5536 49.5157 26.5043C48.2103 28.4551 46.3686 29.9867 44.2126 30.9146C42.0566 31.8426 39.6782 32.1272 37.3641 31.7343C35.05 31.3413 32.8989 30.2876 31.17 28.7L27.28 32.87L23.39 28.69C21.1384 30.7456 18.1988 31.8836 15.15 31.88C13.5659 31.8932 11.9947 31.5939 10.5264 30.9992C9.05808 30.4045 7.72143 29.5262 6.59292 28.4144C5.46442 27.3026 4.56621 25.9792 3.9497 24.5199C3.33318 23.0607 3.01046 21.4941 3 19.91C3.00774 18.2381 3.36799 16.5866 4.05724 15.0634C4.74648 13.5402 5.74922 12.1794 7 11.07L3 6.81H11.82C16.3939 3.74631 21.7749 2.11066 27.28 2.11066C32.7851 2.11066 38.1661 3.74631 42.74 6.81H51.54L47.54 11.07C48.7955 12.1777 49.8014 13.5395 50.4909 15.0652C51.1805 16.5909 51.5381 18.2457 51.54 19.92H51.57ZM39.41 15.67C38.5716 15.6799 37.7549 15.9375 37.0626 16.4104C36.3703 16.8834 35.8334 17.5505 35.5193 18.3279C35.2053 19.1053 35.1283 19.9583 35.2978 20.7794C35.4674 21.6005 35.8761 22.353 36.4724 22.9424C37.0687 23.5318 37.8261 23.9316 38.6491 24.0916C39.4721 24.2516 40.3241 24.1646 41.0977 23.8415C41.8714 23.5184 42.5322 22.9737 42.9971 22.2759C43.4619 21.5781 43.7099 20.7584 43.71 19.92C43.7021 18.7866 43.2449 17.7026 42.4388 16.9059C41.6326 16.1091 40.5434 15.6647 39.41 15.67ZM19.41 19.92C19.4199 20.7725 19.1762 21.6087 18.7098 22.3224C18.2433 23.0361 17.5753 23.595 16.7905 23.9282C16.0057 24.2613 15.1396 24.3536 14.3022 24.1934C13.4648 24.0332 12.6939 23.6276 12.0876 23.0283C11.4812 22.429 11.0667 21.6629 10.8966 20.8274C10.7266 19.992 10.8088 19.1249 11.1328 18.3362C11.4567 17.5476 12.0078 16.873 12.7159 16.3983C13.4241 15.9236 14.2574 15.6701 15.11 15.67C15.6716 15.666 16.2284 15.7729 16.7487 15.9845C17.2689 16.196 17.7423 16.5082 18.1417 16.9029C18.5411 17.2977 18.8587 17.7674 19.0764 18.2851C19.294 18.8028 19.4074 19.3584 19.41 19.92Z" fill="currentColor"/>
<path d="M49.32 43.57V38.57H50.26V39.37H50.31C50.3942 39.1091 50.5632 38.8839 50.79 38.73C51.0251 38.5776 51.2998 38.4976 51.58 38.5H52V39.43H51.79H51.49C51.2771 39.4264 51.0669 39.478 50.88 39.58C50.7036 39.6689 50.5574 39.8081 50.46 39.98C50.3561 40.152 50.3008 40.349 50.3 40.55V43.55L49.32 43.57ZM45.92 42.85C46.1903 42.8599 46.4556 42.775 46.67 42.61C46.8766 42.4448 47.0297 42.2221 47.11 41.97C47.2132 41.6917 47.264 41.3968 47.26 41.1C47.2632 40.8 47.2124 40.502 47.11 40.22C47.0273 39.9663 46.8748 39.741 46.67 39.57C46.4556 39.405 46.1903 39.3201 45.92 39.33C45.6466 39.3203 45.3782 39.405 45.16 39.57C44.9552 39.741 44.8027 39.9663 44.72 40.22C44.6176 40.502 44.5668 40.8 44.57 41.1C44.566 41.3968 44.6169 41.6917 44.72 41.97C44.8003 42.2221 44.9534 42.4448 45.16 42.61C45.3782 42.775 45.6466 42.8597 45.92 42.85ZM45.92 43.67C45.5046 43.6806 45.095 43.5711 44.7402 43.3547C44.3855 43.1383 44.1007 42.8242 43.92 42.45C43.7354 42.0221 43.6401 41.561 43.6401 41.095C43.6401 40.629 43.7354 40.1679 43.92 39.74C44.0729 39.4647 44.2791 39.2227 44.5265 39.028C44.774 38.8334 45.0577 38.6899 45.3612 38.6062C45.6647 38.5224 45.9819 38.4999 46.2941 38.54C46.6064 38.5802 46.9076 38.6822 47.18 38.84C47.5285 39.0587 47.8091 39.3704 47.99 39.74C48.1812 40.1661 48.2801 40.6279 48.2801 41.095C48.2801 41.5621 48.1812 42.0239 47.99 42.45C47.8091 42.8196 47.5285 43.1313 47.18 43.35C46.7987 43.5735 46.3618 43.6845 45.92 43.67ZM42.66 39.8L41.78 39.96C41.7403 39.8431 41.6792 39.7346 41.6 39.64C41.5191 39.5281 41.4082 39.4414 41.28 39.39C41.124 39.3165 40.9523 39.2822 40.78 39.29C40.5375 39.2829 40.2981 39.3453 40.09 39.47C40.0083 39.5184 39.9404 39.5871 39.8931 39.6694C39.8458 39.7518 39.8206 39.845 39.82 39.94C39.8176 40.0174 39.8325 40.0944 39.8636 40.1654C39.8948 40.2363 39.9414 40.2994 40 40.35C40.1802 40.4745 40.3847 40.5597 40.6 40.6L41.39 40.78C41.7612 40.8508 42.1066 41.0201 42.39 41.27C42.5013 41.3829 42.5881 41.5175 42.6449 41.6655C42.7017 41.8135 42.7272 41.9716 42.72 42.13C42.7259 42.4183 42.6343 42.7002 42.46 42.93C42.2756 43.17 42.0305 43.3564 41.75 43.47C41.4137 43.607 41.0532 43.675 40.69 43.67C40.2074 43.6918 39.7296 43.5663 39.32 43.31C39.1498 43.1957 39.0045 43.0483 38.8928 42.8764C38.7811 42.7046 38.7053 42.5119 38.67 42.31L39.61 42.17C39.6564 42.3922 39.785 42.5886 39.97 42.72C40.1828 42.8519 40.4298 42.918 40.68 42.91C40.9478 42.922 41.2129 42.8523 41.44 42.71C41.5251 42.6587 41.5962 42.5871 41.6468 42.5016C41.6975 42.4161 41.726 42.3193 41.73 42.22C41.7324 42.1455 41.7173 42.0714 41.6861 42.0037C41.6548 41.936 41.6082 41.8766 41.55 41.83C41.401 41.6992 41.2166 41.6157 41.02 41.59L40.18 41.4C39.8027 41.3352 39.454 41.1573 39.18 40.89C39.0703 40.7739 38.9847 40.6373 38.928 40.488C38.8714 40.3387 38.8449 40.1796 38.85 40.02C38.8435 39.7409 38.9277 39.4672 39.09 39.24C39.2669 39.0122 39.5018 38.836 39.77 38.73C40.0863 38.5971 40.427 38.5323 40.77 38.54C41.2201 38.516 41.6658 38.6388 42.04 38.89C42.346 39.1122 42.5652 39.4339 42.66 39.8ZM37.14 37.8C36.977 37.8014 36.8197 37.7406 36.7 37.63C36.6429 37.5781 36.5974 37.5148 36.5664 37.4441C36.5354 37.3735 36.5196 37.2971 36.52 37.22C36.5189 37.1428 36.5345 37.0662 36.5655 36.9955C36.5966 36.9247 36.6424 36.8615 36.7 36.81C36.8197 36.6994 36.977 36.6386 37.14 36.64C37.2997 36.6401 37.4534 36.7009 37.57 36.81C37.6276 36.8615 37.6735 36.9247 37.7045 36.9955C37.7356 37.0662 37.7511 37.1428 37.75 37.22C37.7504 37.2971 37.7346 37.3735 37.7036 37.4441C37.6726 37.5148 37.6271 37.5781 37.57 37.63C37.4566 37.7464 37.3025 37.8145 37.14 37.82V37.8ZM36.65 43.55V38.55H37.65V43.55H36.65ZM35.73 38.55L33.93 43.55H32.93L31.12 38.55H32.12L33.38 42.39L34.64 38.55H35.73ZM27.83 42.81C28.0842 42.8151 28.3332 42.7379 28.54 42.59C28.7459 42.4406 28.9053 42.2361 29 42C29.1048 41.7048 29.1556 41.3932 29.15 41.08C29.1564 40.77 29.1056 40.4615 29 40.17C28.9189 39.9293 28.7695 39.7173 28.57 39.56C28.3595 39.412 28.1073 39.3349 27.85 39.34C27.5879 39.3334 27.331 39.4144 27.12 39.57C26.9201 39.7332 26.768 39.9474 26.68 40.19C26.4864 40.7675 26.4864 41.3925 26.68 41.97C26.7603 42.2221 26.9134 42.4448 27.12 42.61C27.3245 42.7635 27.5744 42.8444 27.83 42.84V42.81ZM27.62 43.63C27.2388 43.635 26.8641 43.5309 26.54 43.33C26.2177 43.1054 25.962 42.7979 25.8 42.44C25.6183 42.0031 25.5297 41.5331 25.54 41.06C25.5277 40.5825 25.6199 40.1081 25.81 39.67C25.9722 39.3149 26.228 39.0107 26.55 38.79C26.8741 38.5891 27.2488 38.485 27.63 38.49C27.8864 38.4783 28.1414 38.5334 28.37 38.65C28.5399 38.734 28.69 38.8533 28.81 39C28.9008 39.1146 28.9843 39.2348 29.06 39.36H29.12V36.92H30.12V43.57H29.17V42.79H29.09C29.0171 42.9201 28.9335 43.0438 28.84 43.16C28.7138 43.3044 28.561 43.4232 28.39 43.51C28.1498 43.6231 27.8851 43.6747 27.62 43.66V43.63ZM22.21 42.87C22.4502 42.879 22.6884 42.8238 22.9 42.71C23.0802 42.6144 23.2319 42.473 23.34 42.3C23.4383 42.1297 23.49 41.9366 23.49 41.74V41.1C23.4314 41.1474 23.3631 41.1816 23.29 41.2L23 41.3L22.63 41.36H22.33C22.157 41.3859 21.9864 41.4261 21.82 41.48C21.6764 41.5284 21.5485 41.6148 21.45 41.73C21.3539 41.8445 21.304 41.9907 21.31 42.14C21.3045 42.2471 21.3264 42.3538 21.3736 42.45C21.4209 42.5463 21.4919 42.6289 21.58 42.69C21.7648 42.8204 21.9839 42.8935 22.21 42.9V42.87ZM22 43.65C21.7069 43.653 21.4167 43.5916 21.15 43.47C20.8905 43.3593 20.6716 43.1712 20.523 42.9313C20.3744 42.6915 20.3036 42.4116 20.32 42.13C20.309 41.8897 20.3643 41.6509 20.48 41.44C20.5869 41.2583 20.7383 41.1069 20.92 41C21.1159 40.8945 21.3242 40.8139 21.54 40.76C21.76 40.7133 21.99 40.6733 22.23 40.64L22.96 40.56C23.0994 40.5439 23.2348 40.5033 23.36 40.44C23.4034 40.4152 23.4388 40.3785 23.4618 40.3341C23.4849 40.2898 23.4947 40.2398 23.49 40.19C23.4987 40.0693 23.4818 39.9481 23.4405 39.8344C23.3991 39.7207 23.3342 39.6169 23.25 39.53C23.0534 39.361 22.7988 39.2749 22.54 39.29C22.2663 39.2776 21.9959 39.3549 21.77 39.51C21.5968 39.6294 21.4614 39.796 21.38 39.99L20.47 39.78C20.5649 39.4996 20.7302 39.2483 20.95 39.05C21.1559 38.8607 21.4021 38.7205 21.67 38.64C21.9478 38.5506 22.2382 38.5067 22.53 38.51C22.742 38.5097 22.9533 38.5331 23.16 38.58C23.3831 38.6255 23.5964 38.7102 23.79 38.83C23.9941 38.9611 24.1598 39.144 24.27 39.36C24.4081 39.6356 24.4735 39.942 24.46 40.25V43.56H23.51V42.88C23.43 43.0155 23.3325 43.1399 23.22 43.25C23.0819 43.3814 22.9186 43.4835 22.74 43.55C22.5046 43.6427 22.2529 43.6869 22 43.68V43.65ZM15.87 41.05C15.8543 41.372 15.8984 41.6941 16 42C16.088 42.2426 16.2401 42.4568 16.44 42.62C16.6468 42.7679 16.8958 42.8451 17.15 42.84C17.4093 42.8482 17.6635 42.767 17.87 42.61C18.0733 42.4417 18.2257 42.2201 18.31 41.97C18.4222 41.687 18.4766 41.3844 18.47 41.08C18.4749 40.7767 18.424 40.475 18.32 40.19C18.232 39.9474 18.0799 39.7332 17.88 39.57C17.669 39.4144 17.4121 39.3334 17.15 39.34C16.8927 39.3349 16.6405 39.412 16.43 39.56C16.2305 39.7194 16.0783 39.9303 15.99 40.17C15.8946 40.4634 15.854 40.7719 15.87 41.08V41.05ZM14.87 45.41V38.58H15.82V39.39H15.9C15.9757 39.2648 16.0592 39.1446 16.15 39.03C16.2701 38.8833 16.4201 38.764 16.59 38.68C16.8182 38.5621 17.0735 38.5069 17.33 38.52C17.7112 38.515 18.086 38.6191 18.41 38.82C18.7348 39.0376 18.9914 39.3427 19.15 39.7C19.3484 40.1358 19.4442 40.6113 19.43 41.09C19.4421 41.5642 19.35 42.0353 19.16 42.47C18.998 42.8279 18.7424 43.1354 18.42 43.36C18.096 43.5609 17.7212 43.665 17.34 43.66C17.0849 43.6697 16.8312 43.6183 16.6 43.51C16.429 43.4232 16.2763 43.3044 16.15 43.16C16.0565 43.0438 15.9729 42.9201 15.9 42.79H15.84V45.44L14.87 45.41ZM13.09 37.79C12.9299 37.792 12.7755 37.7309 12.66 37.62C12.6029 37.5681 12.5574 37.5048 12.5264 37.4341C12.4954 37.3635 12.4796 37.2871 12.48 37.21C12.4789 37.1328 12.4945 37.0562 12.5255 36.9855C12.5566 36.9147 12.6024 36.8515 12.66 36.8C12.7767 36.691 12.9304 36.6304 13.09 36.6304C13.2497 36.6304 13.4033 36.691 13.52 36.8C13.5776 36.8515 13.6235 36.9147 13.6545 36.9855C13.6856 37.0562 13.7011 37.1328 13.7 37.21C13.7004 37.2871 13.6846 37.3635 13.6536 37.4341C13.6226 37.5048 13.5771 37.5681 13.52 37.62C13.4193 37.7327 13.2803 37.8039 13.13 37.82L13.09 37.79ZM12.6 43.54V38.54H13.6V43.54H12.6ZM9.09001 43.54V38.54H10.03V39.34C10.1142 39.0791 10.2832 38.8539 10.51 38.7C10.7451 38.5476 11.0198 38.4676 11.3 38.47H11.71V39.4H11.5H11.2C10.9872 39.3973 10.7773 39.4489 10.59 39.55C10.4136 39.6389 10.2674 39.7781 10.17 39.95C10.0661 40.122 10.0108 40.319 10.01 40.52V43.52L9.09001 43.54ZM3.45001 37.79V36.92H8.59001V37.79H6.52001V43.57H5.52001V37.79H3.45001Z" fill="currentColor"/>
</g>
<defs>
<clipPath id="clip0_2723_13702">
<rect width="55" height="46" fill="currentColor"/>
</clipPath>
</defs>
</svg>
