<svg width="27" height="10" viewBox="0 0 27 10" fill="none" xmlns="http://www.w3.org/2000/svg">
<g style="mix-blend-mode:overlay">
<path d="M11.3129 1.00702L9.56689 9.04935H11.6833L13.3764 1.00702H11.3129Z" fill="black"/>
<path d="M8.24406 1.00701L6.07473 6.45674L5.17525 1.80066C5.06943 1.27156 4.64616 1.00701 4.22288 1.00701H0.677897L0.625 1.21867C1.36574 1.3774 2.1594 1.64194 2.6885 1.90649C3.00597 2.06522 3.05886 2.22395 3.16468 2.59432L4.80491 8.99645H7.0271L10.4134 0.954117H8.24406V1.00701Z" fill="black"/>
<path d="M24.699 1.00702H22.9001C22.4768 1.00702 22.1593 1.21868 22.0006 1.58905L18.8789 9.04935H21.0482L21.4715 7.83243H24.117L24.3816 9.04935H26.2863L24.699 1.00702ZM22.1593 6.1922L23.2704 3.17635L23.9054 6.1922H22.1593Z" fill="black"/>
<path d="M16.1277 3.22925C16.1277 2.9647 16.3923 2.64725 17.0272 2.54143C17.3446 2.48852 18.1383 2.48852 19.0907 2.9118L19.461 1.21867C18.9848 1.05994 18.297 0.848297 17.5034 0.848297C15.4399 0.848297 14.0113 1.95941 14.0113 3.4938C14.0113 4.65782 15.0695 5.29273 15.8102 5.6631C16.6039 6.03347 16.8684 6.29803 16.8684 6.6684C16.8684 7.1975 16.2335 7.46205 15.5986 7.46205C14.5404 7.46205 13.9584 7.1975 13.4822 6.93295L13.1118 8.67898C13.588 8.89062 14.4875 9.10225 15.4399 9.10225C17.6092 9.10225 19.0377 8.04408 19.0377 6.35096C19.0377 4.34037 16.0748 4.18163 16.1277 3.22925Z" fill="black"/>
</g>
</svg>
