<svg width="56" height="45" viewBox="0 0 56 45" fill="none" xmlns="http://www.w3.org/2000/svg">
<path d="M56 37.986V45.0023H0V38.0116C3.25721 33.6587 7.48512 30.1258 12.3475 27.6937C17.2099 25.2617 22.5727 23.9978 28.0093 24.0023C39.452 24.0023 49.616 29.495 56 37.986ZM37.338 9.99996C37.338 12.4753 36.3547 14.8493 34.6043 16.5996C32.854 18.35 30.48 19.3333 28.0047 19.3333C25.5293 19.3333 23.1553 18.35 21.405 16.5996C19.6547 14.8493 18.6713 12.4753 18.6713 9.99996C18.6713 7.5246 19.6547 5.15063 21.405 3.4003C23.1553 1.64996 25.5293 0.666626 28.0047 0.666626C30.48 0.666626 32.854 1.64996 34.6043 3.4003C36.3547 5.15063 37.338 7.5246 37.338 9.99996Z" fill="#D1D5DB"/>
</svg>
